# xmcd
#
# Track frame offsets:
#	150
#	19026
#	43151
#	62157
#	77092
#	93482
#	113073
#	128569
#	147158
#	178984
#	198452
#
# Disc length: 2809 seconds
#
# Revision: 6
# Processed by: cddbd v1.5.2PL0 Copyright (c) Steve Scherf et al.
# Submitted via: EasyCDDAExtractor 15.3.0.1
#
DISCID=970af70b
DTITLE=Ednita Nazario - Acustico Vol II
DYEAR=2002
DGENRE=Latin
TTITLE0=Espiritu Libre
TTITLE1=Quiero Que Me Hagas El Amor
TTITLE2=Te Sigo Esperando
TTITLE3=Medley (La Prohibida, A Que No Le Cuentas)
TTITLE4=Lo Mejor De Ti
TTITLE5=Tres Deseos
TTITLE6=Devuelveme
TTITLE7=Lo Que Son Las Cosas
TTITLE8=Medley (Como Antes, Contigo, Mi Amor, Mi Corazon Tiene Mente Propia)
TTITLE9=Aprendere
TTITLE10=Fruto De Tu Boca
EXTD=
EXTT0=
EXTT1=
EXTT2=
EXTT3=
EXTT4=
EXTT5=
EXTT6=
EXTT7=
EXTT8=
EXTT9=
EXTT10=
PLAYORDER=
